Coordinates
version=1
nRows=8
nColumns=36
inDegrees=yes

Units are S.I. units (second, meters, Newtons, ...)
If the header above contains a line with 'inDegrees', this indicates whether rotational values are in degrees (yes) or radians (no).

endheader
time	pelvis_tilt	pelvis_list	pelvis_rotation	pelvis_tx	pelvis_ty	pelvis_tz	hip_flexion_r	hip_adduction_r	hip_rotation_r	knee_angle_r	knee_angle_r_beta	ankle_angle_r	subtalar_angle_r	mtp_angle_r	hip_flexion_l	hip_adduction_l	hip_rotation_l	knee_angle_l	knee_angle_l_beta	ankle_angle_l	subtalar_angle_l	mtp_angle_l	lumbar_extension	lumbar_bending	lumbar_rotation	arm_flex_r	arm_add_r	arm_rot_r	elbow_flex_r	pro_sup_r	arm_flex_l	arm_add_l	arm_rot_l	elbow_flex_l	pro_sup_l
      2.79166670	    -13.21601721	      2.04635989	     -1.31923382	      0.02054437	      0.78535852	     -0.11124699	     65.86037798	     -6.83210633	      9.09282737	     86.57247579	      1.51097474	     27.95616715	     -9.65658827	     -7.49999987	     65.87522478	     -4.23407206	      5.42727714	     82.51569153	      1.44017050	     28.36040885	     -4.53586932	     -7.49999987	    -34.01658421	      0.91205975	      4.32232542	     48.56925921	    -11.51259430	      7.40266628	     84.17549720	     78.45558857	     50.00012565	     -6.25850705	     25.29234444	    101.27718600	     72.10706881
      2.79583330	    -13.55737843	      1.97047843	     -1.16219077	      0.02239663	      0.78310430	     -0.11136467	     66.91444726	     -6.86007496	      9.15721099	     87.62170815	      1.52928730	     27.14317750	     -9.80930596	     -7.49999987	     66.55196547	     -4.23916860	      5.57406822	     83.05087303	      1.44951118	     28.43357759	     -4.35383444	     -7.49999987	    -34.29917108	      0.94768799	      4.33023953	     49.78615189	    -11.75843367	      7.26910659	     84.18985951	     78.57418248	     51.12036593	     -6.23788483	     25.24562792	    101.36216737	     72.10293200
      2.80000000	    -14.14653984	      1.77202074	     -1.07111912	      0.02307247	      0.78006961	     -0.11162345	     68.19566968	     -6.76052397	      9.18446987	     88.47663381	      1.54420857	     25.82774593	    -10.33235264	     -7.49999987	     67.55846070	     -4.47607704	      5.79306470	     83.64856025	      1.45994279	     28.90777707	     -3.42105565	     -7.49999987	    -34.23297463	      1.10848707	      4.46580991	     51.00809730	    -12.18718337	      7.57575232	     83.82983295	     79.00585868	     52.29629363	     -6.44290777	     25.65450625	    101.19496412	     71.96142036
      2.80416670	    -14.53429433	      1.66642863	     -1.02118512	      0.02228660	      0.77947352	     -0.11188427	     69.12218749	     -6.70566214	      9.24485809	     89.01099935	      1.55353501	     24.91546325	    -10.03004396	     -7.49999987	     68.20870249	     -4.53180167	      5.91131597	     83.99872588	      1.46605433	     28.73950336	     -3.08706916	     -7.49999987	    -34.59138045	      1.20040107	      4.55704977	     52.38030545	    -12.56061530	      7.57664838	     83.43129504	     78.36215279	     53.68547930	     -6.34301340	     25.57091722	    100.86079420	     71.33308142
      2.80833330	    -14.88084197	      1.61678392	     -0.94753270	      0.02411498	      0.77675630	     -0.11203607	     70.11933538	     -6.79052690	      9.23099326	     89.89621569	      1.56898495	     24.12016783	     -9.92954940	     -7.49999987	     68.84576431	     -4.60106849	      5.99287958	     84.34670102	      1.47212765	     28.59602254	     -2.93633720	     -7.49999987	    -34.98214602	      1.29050677	      4.56905056	     53.56062828	    -12.88035592	      7.40121709	     83.33912635	     78.35529521	     54.78966107	     -6.38770563	     25.38722696	    100.85456556	     71.28339332
      2.81250000	    -15.39053057	      1.49158730	     -1.00420903	      0.02356298	      0.77374875	     -0.11164522	     71.28807298	     -6.62662942	      9.20759850	     90.56466754	      1.58065163	     23.17923607	     -9.78208605	     -7.49999987	     69.82973233	     -4.82864442	      5.97510476	     84.98035763	      1.48318704	     28.44765467	     -2.85907963	     -7.49999987	    -35.32197110	      1.39857737	      4.72950022	     54.98193512	    -13.21703161	      7.46691809	     83.12260151	     78.44335476	     56.19202755	     -6.44219270	     25.41635063	    101.00167643	     71.24926967
      2.81666670	    -16.00097863	      1.31024206	     -1.19360241	      0.02528574	      0.76937920	     -0.11359337	     72.54234132	     -6.45367763	      9.17046093	     91.36163918	      1.59456141	     22.31473989	     -9.92582888	     -7.49999987	     70.94769799	     -5.13010743	      5.97155311	     85.87558981	      1.49881179	     28.61708579	     -2.29613981	     -7.49999987	    -35.25402631	      1.62373902	      4.92186154	     56.37449037	    -13.75481028	      8.25530589	     82.45710695	     79.00886777	     57.32335341	     -6.69131902	     25.42353472	    100.81523272	     71.23540535
      2.82083330	    -16.41375438	      1.30613545	     -1.32185019	      0.02594715	      0.76533739	     -0.11223367	     73.73384405	     -6.44062986	      9.29598247	     92.27644772	      1.61052783	     21.69231981	     -9.74122028	     -7.49999987	     71.81220011	     -5.25945025	      6.06049417	     86.55030914	      1.51058786	     28.52277883	     -2.26588111	     -7.49999987	    -35.52910613	      1.62625902	      5.01078424	     57.82464902	    -13.91266605	      8.23867163	     82.19517132	     78.87241853	     58.65457445	     -6.49581037	     25.19623818	    100.67765640	     71.07754463
